<svg id="Logo" xmlns="http://www.w3.org/2000/svg" viewBox="0 0 760 1272"><defs><style>.cls-1{fill:#fff;}</style></defs><title>Web</title><path class="cls-1" d="M1350.71,1209.29a346.36,346.36,0,0,1,53.29,68.53V640a223.14,223.14,0,0,0-17.53-88c-14-33-36.05-61.68-65.43-85.37-31.56-25.44-71.73-45-119.39-58-50-13.7-109.79-20.65-177.65-20.65-74.7,0-171.19,5.79-255,50.91-68.48,36.89-113.24,97.85-122.79,167.24-5.26,38.19.77,77.21,17.89,116,13.92,31.51,35.16,62,61.42,88.3l512,512c32.73,32.73,49.66,71.26,45.29,103.07-4.27,31-26.43,59.44-60.81,78-60.15,32.4-137.43,36.55-198,36.55-129.85,0-192.24-28.32-221.72-52.08C776.52,1467.15,764,1441,764,1408V905.42l-66.71-66.71A346.37,346.37,0,0,1,644,770.18V1408a223.15,223.15,0,0,0,17.53,88c14,33,36.05,61.68,65.43,85.37,31.56,25.44,71.73,45,119.39,58,50,13.7,109.79,20.65,177.65,20.65,74.7,0,171.19-5.79,255-50.91,68.48-36.89,113.24-97.85,122.79-167.24,5.25-38.19-.77-77.21-17.9-116-13.92-31.51-35.16-62-61.42-88.3l-512-512c-32.73-32.73-49.66-71.26-45.29-103.07,4.27-31,26.43-59.43,60.81-78C886.1,512.15,963.39,508,1024,508c129.86,0,192.24,28.32,221.72,52.08C1271.48,580.85,1284,607,1284,640v502.58Z" transform="translate(-644 -388)"/></svg>