<?xml version="1.0" encoding="utf-8"?>
<!-- Generator: Adobe Illustrator 19.2.1, SVG Export Plug-In . SVG Version: 6.00 Build 0)  -->
<svg version="1.1" id="Plus" xmlns="http://www.w3.org/2000/svg" xmlns:xlink="http://www.w3.org/1999/xlink" x="0px" y="0px"
	 viewBox="0 0 112 112" style="enable-background:new 0 0 112 112;" xml:space="preserve">
<style type="text/css">
	.st0{fill:#FFFFFF;}
</style>
<title>plus</title>
<path class="st0" d="M61,51V1c0-0.6-0.4-1-1-1h-8c-0.6,0-1,0.4-1,1v50H1c-0.6,0-1,0.4-1,1v8c0,0.6,0.4,1,1,1h50v50c0,0.6,0.4,1,1,1
	h8c0.6,0,1-0.4,1-1V61h50c0.6,0,1-0.4,1-1v-8c0-0.6-0.4-1-1-1H61z"/>
</svg>
